<svg width="89" height="88" viewBox="0 0 89 88" fill="none" xmlns="http://www.w3.org/2000/svg">
<g clip-path="url(#clip0_320_39)">
<path d="M87.0491 12.9202C87.5192 13.8442 87.7786 14.8169 87.8597 15.8544C88.8323 27.4453 87.8272 41.8245 87.8272 53.7558C87.8272 58.1976 87.7624 62.8015 87.8272 67.3244C87.8434 68.7996 88.8485 69.7399 87.2599 71.0043C76.9016 75.6569 66.7541 80.9741 56.2985 85.3997C50.4466 87.88 50.0414 87.1181 44.1247 85.6591C30.0381 82.2062 16.1946 77.6346 2.28631 73.5657C0.989501 73.128 0.794979 72.1229 0.681508 70.8909C-0.0317381 62.8826 0.794979 53.0425 0.713929 44.7749C0.616668 37.2692 -0.0803685 29.423 0.000682244 21.9011C0.000682244 20.5232 0.260045 18.0753 1.26507 17.1675C2.75641 15.822 8.07333 13.5524 10.1969 12.5149C20.0364 7.76508 30.265 3.66369 40.5422 0C56.185 3.76096 71.6333 8.34868 87.0491 12.9202ZM84.9905 13.5524L41.142 1.4752C35.9224 2.80451 30.9296 5.02542 26.0504 7.29497L72.7194 19.2425C73.2543 19.3884 73.692 19.129 74.1783 18.9831C76.3018 18.3347 81.8619 15.4329 84.1151 14.2657C84.4393 14.0874 84.9743 14.0874 85.0067 13.5524H84.9905ZM71.4226 19.9882L24.3807 7.9272C17.3131 10.8776 10.2131 13.8929 3.5507 17.67L50.8843 29.2933L71.4064 20.0044L71.4226 19.9882ZM86.417 14.979L74.3242 20.5556C74.7943 25.4351 74.8591 30.2498 74.9888 35.1455C75.0212 36.4748 75.7993 37.7555 74.9726 39.2469L71.228 37.5123C70.5472 37.5123 67.8239 43.5753 66.5757 41.7758L66.0408 24.2679L52.3432 30.3146C51.3382 31.8385 52.1163 33.3461 52.1325 34.8051C52.2298 45.0505 52.0352 55.312 52.1001 65.5574V85.3673L86.417 69.9992V14.979ZM50.706 30.7037L1.76759 18.9183V40.5438C3.25892 50.1569 0.989501 61.4398 2.108 70.9071C2.15663 71.2961 2.108 71.6852 2.48083 71.977L50.7222 85.724V30.7037H50.706ZM73.2057 21.0581L67.1269 23.7978L67.4997 39.9926C68.3264 40.2196 68.0995 39.7981 68.3102 39.5387C68.8614 38.9065 70.4175 36.183 70.9363 36.0858L73.9189 37.8528L73.2057 21.0581Z" fill="#A06ED9"/>
</g>
<defs>
<clipPath id="clip0_320_39">
<rect width="88.2804" height="87.037" fill="white"/>
</clipPath>
</defs>
</svg>
