<svg width="109" height="111" viewBox="0 0 109 111" fill="none" xmlns="http://www.w3.org/2000/svg">
<path d="M77.23 106.09C70.35 109.02 62.73 110.49 54.37 110.49C46.01 110.49 38.36 109.02 31.44 106.09C24.52 103.16 18.6 98.85 13.7 93.18C9.32001 88.18 5.95001 82.3 3.57001 75.55C1.19001 68.79 0 61.79 0 54.53C0 39.58 4.47001 27.03 13.42 16.88C23.28 5.63 36.88 0 54.24 0C71.6 0 85.04 5.67002 94.99 17.02C99.36 21.88 102.72 27.56 105.05 34.08C107.38 40.59 108.55 47.51 108.55 54.81C108.55 62.11 107.36 68.91 104.98 75.62C102.6 82.33 99.22 88.18 94.85 93.18C89.99 98.85 84.13 103.16 77.25 106.09H77.23ZM19.17 54.95C19.17 78.61 30.78 90.43 54.01 90.43H54.66C66.25 90.43 74.95 87.4 80.77 81.34C86.59 75.28 89.5 66.48 89.5 54.94C89.5 31.72 77.79 20.1 54.38 20.1C42.74 20.1 33.97 23.08 28.06 29.04C22.15 35 19.19 43.63 19.19 54.93L19.17 54.95Z" fill="#DFDCCB"/>
</svg>
