<svg width="251" height="72" viewBox="0 0 251 72" fill="none" xmlns="http://www.w3.org/2000/svg">
<path d="M33.8408 71.05C29.3308 71.05 24.9908 70.1 20.8208 68.2C16.6508 66.3 13.0508 63.77 10.0108 60.59C6.9808 57.42 4.55081 53.66 2.73081 49.32C0.910805 44.98 0.000794062 40.46 0.000794062 35.76C-0.0292059 31.19 0.790795 26.77 2.4708 22.53C4.1508 18.28 6.5508 14.48 9.6608 11.12C12.7708 7.78996 16.4008 5.21996 20.5408 3.41996C24.6808 1.61996 29.0208 0.709961 33.5608 0.709961C38.4108 0.799961 42.9708 1.68996 47.2408 3.36996V15.69C43.6908 13.95 39.7108 13.03 35.2908 12.94C28.7208 12.94 23.3208 15.1 19.0708 19.41C14.8208 23.72 12.7008 29.17 12.7008 35.77C12.7008 42.37 14.7908 48.09 18.9808 52.39C23.1608 56.68 28.5608 58.83 35.1508 58.83C39.2008 58.83 43.2308 57.93 47.2408 56.12V68.4C42.8208 70.17 38.3608 71.06 33.8408 71.06V71.05Z" fill="#8C6FAF"/>
<path d="M99.5908 68.67C95.1408 70.57 90.2108 71.52 84.7908 71.52C79.3708 71.52 74.4308 70.57 69.9508 68.67C65.4708 66.77 61.6408 63.99 58.4708 60.31C55.6408 57.07 53.4508 53.27 51.9108 48.9C50.3708 44.53 49.6008 39.99 49.6008 35.29C49.6008 25.61 52.4908 17.49 58.2808 10.92C64.6608 3.64 73.4708 0 84.7008 0C95.9308 0 104.631 3.67 111.071 11.02C113.901 14.16 116.071 17.84 117.581 22.06C119.091 26.28 119.841 30.75 119.841 35.48C119.841 40.21 119.071 44.61 117.531 48.95C115.991 53.29 113.801 57.08 110.971 60.32C107.831 63.99 104.031 66.78 99.5808 68.68L99.5908 68.67ZM62.0108 35.57C62.0108 50.88 69.5308 58.54 84.5608 58.54H84.9808C92.4808 58.54 98.1109 56.58 101.881 52.66C105.641 48.74 107.531 43.04 107.531 35.58C107.531 20.55 99.9508 13.03 84.8008 13.03C77.2708 13.03 71.5908 14.96 67.7608 18.82C63.9308 22.68 62.0208 28.27 62.0208 35.58L62.0108 35.57Z" fill="#8C6FAF"/>
<path d="M163.841 71.5201C161.981 71.5201 160.151 71.2301 158.341 70.6401C156.531 70.0501 154.891 69.2601 153.411 68.2701C151.931 67.2801 150.501 66.1301 149.141 64.8301C147.771 63.5301 146.561 62.1601 145.501 60.7301C144.441 59.3001 143.451 57.8701 142.521 56.4601C141.591 55.0401 140.801 53.6801 140.151 52.3801C139.501 51.0801 138.941 49.9301 138.491 48.9401C138.031 47.9501 137.691 47.1601 137.461 46.5701L137.121 45.6901V70.0201H124.611V0.0700684H146.351C155.701 0.0700684 162.551 1.82007 166.921 5.32007C171.281 8.82007 173.471 14.3501 173.471 21.9001C173.471 24.5401 173.201 26.9601 172.661 29.1801C172.121 31.4001 171.401 33.2601 170.491 34.7701C169.581 36.2801 168.541 37.6401 167.361 38.8501C166.181 40.0601 164.951 41.0101 163.651 41.7101C162.351 42.4101 161.051 43.0101 159.771 43.5201C158.481 44.0301 157.251 44.3801 156.081 44.5701C154.911 44.7701 153.871 44.9101 152.951 45.0101C152.041 45.1101 151.301 45.1401 150.751 45.1101H149.971C150.071 45.3401 150.191 45.6401 150.341 46.0101C150.491 46.3801 150.821 47.1201 151.341 48.2101C151.861 49.3001 152.411 50.3401 152.981 51.3401C153.551 52.3301 154.261 53.4301 155.111 54.6401C155.961 55.8501 156.811 56.8801 157.671 57.7401C158.531 58.6001 159.511 59.3401 160.601 59.9401C161.691 60.5401 162.771 60.8401 163.851 60.8401C165.741 60.8401 167.411 60.0701 168.861 58.5201C170.311 56.9701 171.381 54.6401 172.061 51.5101H182.471C182.471 53.5901 182.051 55.7801 181.221 58.0801C180.391 60.3801 179.221 62.5301 177.731 64.5501C176.241 66.5701 174.261 68.2401 171.821 69.5601C169.381 70.8801 166.721 71.5401 163.861 71.5401L163.841 71.5201ZM136.141 22.3701C136.141 25.9901 137.151 28.7901 139.171 30.8001C141.191 32.8001 144.041 33.8001 147.721 33.8001H148.261C152.001 33.8001 154.891 32.8201 156.911 30.8701C158.931 28.9201 159.941 26.1501 159.941 22.5701C159.941 18.9901 158.941 16.1101 156.941 14.1401C154.941 12.1701 152.081 11.1801 148.371 11.1801H147.831C144.121 11.1801 141.241 12.1601 139.211 14.1101C137.171 16.0601 136.161 18.8201 136.161 22.3701H136.141Z" fill="#8C6FAF"/>
<path d="M182.411 71.5201L208.461 0.0500488H224.931L250.581 71.5201H236.861L235.111 66.73C234.011 63.93 232.681 61.7601 231.121 60.1901C227.661 57.0601 223.001 55.4501 217.151 55.3501H216.101C210.141 55.4501 205.491 56.9601 202.131 59.8901C200.631 61.1901 199.201 63.37 197.841 66.43L195.891 71.5201H182.411ZM208.581 45.76H229.641L219.211 13.2701L208.581 45.76Z" fill="#8C6FAF"/>
</svg>
