<svg xmlns="http://www.w3.org/2000/svg" viewBox="0 0 2048 2048" width="2048" height="2048">
<path d="M 883 513 L 863 523 L 836 541 L 801 575 L 784 599 L 771 623 L 756 663 L 750 687 L 745 718 L 742 759 L 743 809 L 746 840 L 751 869 L 763 911 L 775 939 L 787 960 L 805 984 L 826 1005 L 860 1029 L 875 1037 L 908 1050 L 960 1062 L 1018 1067 L 1047 1067 L 1090 1064 L 1146 1053 L 1170 1045 L 1207 1027 L 1225 1015 L 1244 999 L 1261 981 L 1281 953 L 1301 912 L 1309 888 L 1318 847 L 1323 795 L 1323 752 L 1318 700 L 1310 663 L 1303 641 L 1282 597 L 1259 566 L 1236 544 L 1205 523 L 1170 507 L 1125 494 L 1060 486 L 992 487 L 938 495 L 912 502 Z" fill="#a06ed9" fill-rule="evenodd"/>
<path d="M 110 93 L 83 121 L 64 145 L 42 180 L 31 202 L 13 249 L 4 287 L 0 315 L 0 1732 L 11 1791 L 21 1822 L 42 1867 L 64 1902 L 93 1937 L 121 1964 L 145 1983 L 180 2005 L 225 2026 L 256 2036 L 315 2047 L 1732 2047 L 1791 2036 L 1822 2026 L 1867 2005 L 1902 1983 L 1937 1954 L 1964 1926 L 1983 1902 L 2005 1867 L 2026 1822 L 2036 1791 L 2047 1732 L 2047 315 L 2036 256 L 2026 225 L 2005 180 L 1983 145 L 1954 110 L 1926 83 L 1902 64 L 1867 42 L 1845 31 L 1798 13 L 1760 4 L 1732 0 L 315 0 L 256 11 L 225 21 L 180 42 L 145 64 Z M 1799 1275 L 1796 1283 L 1790 1289 L 1785 1291 L 1777 1291 L 1716 1273 L 1686 1336 L 1659 1382 L 1626 1430 L 1584 1481 L 1540 1526 L 1494 1566 L 1448 1600 L 1388 1637 L 1334 1664 L 1285 1684 L 1243 1698 L 1189 1712 L 1126 1723 L 1075 1728 L 1010 1729 L 972 1727 L 907 1719 L 849 1707 L 777 1685 L 732 1667 L 686 1645 L 634 1615 L 590 1585 L 538 1543 L 503 1510 L 451 1452 L 414 1402 L 384 1354 L 349 1285 L 328 1232 L 310 1173 L 309 1144 L 315 1124 L 323 1110 L 337 1095 L 356 1083 L 378 1077 L 397 1077 L 417 1082 L 432 1090 L 451 1108 L 461 1125 L 478 1182 L 493 1220 L 515 1265 L 535 1299 L 556 1330 L 587 1369 L 608 1392 L 646 1428 L 689 1462 L 719 1482 L 748 1499 L 797 1523 L 830 1536 L 889 1554 L 939 1564 L 982 1569 L 1018 1571 L 1079 1569 L 1133 1562 L 1178 1552 L 1232 1535 L 1273 1518 L 1325 1491 L 1367 1464 L 1421 1421 L 1454 1389 L 1479 1361 L 1504 1329 L 1525 1298 L 1544 1266 L 1562 1230 L 1560 1228 L 1497 1210 L 1492 1205 L 1489 1198 L 1489 1191 L 1492 1185 L 1497 1180 L 1680 1072 L 1694 1072 L 1703 1081 L 1798 1268 Z M 959 322 L 1012 318 L 1051 318 L 1095 321 L 1150 330 L 1184 339 L 1223 353 L 1264 373 L 1296 393 L 1328 418 L 1364 453 L 1391 485 L 1413 517 L 1434 555 L 1453 600 L 1464 635 L 1474 679 L 1479 715 L 1482 759 L 1481 807 L 1474 864 L 1463 912 L 1449 954 L 1432 994 L 1408 1037 L 1385 1070 L 1355 1105 L 1327 1132 L 1291 1160 L 1262 1178 L 1219 1199 L 1180 1213 L 1126 1226 L 1092 1231 L 1038 1234 L 985 1232 L 945 1227 L 903 1218 L 870 1208 L 826 1190 L 786 1168 L 747 1140 L 711 1107 L 683 1075 L 656 1037 L 629 987 L 614 951 L 603 918 L 592 873 L 585 828 L 582 781 L 584 719 L 591 669 L 600 630 L 613 590 L 637 538 L 653 511 L 675 480 L 706 444 L 743 410 L 779 384 L 825 359 L 868 342 L 912 330 Z" fill="#a06ed9" fill-rule="evenodd"/>
<path d="M 959 323 L 912 331 L 868 343 L 825 360 L 779 385 L 743 411 L 707 444 L 676 480 L 654 511 L 638 538 L 614 590 L 601 630 L 592 669 L 585 719 L 583 781 L 586 828 L 593 873 L 604 918 L 615 951 L 630 987 L 657 1037 L 684 1075 L 712 1107 L 747 1139 L 786 1167 L 826 1189 L 870 1207 L 903 1217 L 945 1226 L 985 1231 L 1038 1233 L 1081 1231 L 1126 1225 L 1159 1218 L 1214 1200 L 1247 1185 L 1291 1159 L 1320 1137 L 1354 1105 L 1384 1070 L 1407 1037 L 1431 994 L 1448 954 L 1462 912 L 1473 864 L 1478 829 L 1481 785 L 1480 737 L 1473 679 L 1463 635 L 1452 600 L 1433 555 L 1412 517 L 1390 485 L 1363 453 L 1328 419 L 1296 394 L 1264 374 L 1223 354 L 1184 340 L 1150 331 L 1095 322 L 1051 319 L 1012 319 Z M 883 512 L 912 501 L 938 494 L 992 486 L 1060 485 L 1125 493 L 1170 506 L 1185 512 L 1218 530 L 1236 543 L 1260 566 L 1283 597 L 1304 641 L 1311 663 L 1319 700 L 1324 752 L 1324 795 L 1319 847 L 1310 888 L 1302 912 L 1282 953 L 1266 976 L 1253 991 L 1235 1008 L 1207 1028 L 1170 1046 L 1146 1054 L 1090 1065 L 1047 1068 L 1018 1068 L 960 1063 L 908 1051 L 875 1038 L 860 1030 L 826 1006 L 804 984 L 786 960 L 774 939 L 762 911 L 750 869 L 745 840 L 742 809 L 741 759 L 743 727 L 749 687 L 755 663 L 770 623 L 783 599 L 800 575 L 836 540 L 863 522 Z" fill="#e0ddcc" fill-rule="evenodd"/>
<path d="M 1798 1275 L 1797 1268 L 1702 1081 L 1694 1073 L 1680 1073 L 1512 1172 L 1493 1185 L 1490 1191 L 1490 1198 L 1493 1205 L 1497 1209 L 1560 1227 L 1563 1230 L 1545 1266 L 1526 1298 L 1505 1329 L 1480 1361 L 1455 1389 L 1421 1422 L 1367 1465 L 1325 1492 L 1273 1519 L 1232 1536 L 1178 1553 L 1133 1563 L 1079 1570 L 1043 1572 L 982 1570 L 939 1565 L 889 1555 L 830 1537 L 797 1524 L 748 1500 L 719 1483 L 689 1463 L 646 1429 L 620 1405 L 586 1369 L 555 1330 L 534 1299 L 514 1265 L 492 1220 L 477 1182 L 460 1125 L 450 1108 L 432 1091 L 417 1083 L 397 1078 L 378 1078 L 356 1084 L 337 1096 L 324 1110 L 316 1124 L 310 1144 L 311 1173 L 329 1232 L 350 1285 L 385 1354 L 415 1402 L 452 1452 L 504 1510 L 538 1542 L 578 1575 L 634 1614 L 686 1644 L 732 1666 L 777 1684 L 849 1706 L 907 1718 L 972 1726 L 1010 1728 L 1075 1727 L 1126 1722 L 1189 1711 L 1243 1697 L 1285 1683 L 1334 1663 L 1388 1636 L 1448 1599 L 1494 1565 L 1540 1525 L 1583 1481 L 1625 1430 L 1658 1382 L 1685 1336 L 1716 1272 L 1777 1290 L 1785 1290 L 1790 1288 L 1795 1283 Z" fill="#f4c048" fill-rule="evenodd"/>
</svg>