<svg width="249" height="55" viewBox="0 0 249 55" fill="none" xmlns="http://www.w3.org/2000/svg">
<path d="M35.7201 17.0398V20.9897H42.48V26.2197H35.7201V35.5198H29.5601V11.8198H43.17V17.0398H35.7201Z" fill="white"/>
<path d="M51.5001 31.3998L49.8701 35.5198H43.3301L52.4501 11.8198H59.1801L68.1001 35.5198H61.5301L59.9901 31.3998H51.5001ZM55.8101 19.1398H55.7401L53.1901 26.6898H58.3201L55.8001 19.1398H55.8101Z" fill="white"/>
<path d="M89.97 35.5198H82.3L76.48 26.4098H76.42V35.5198H70.26V11.8198H79.47C84.15 11.8198 87.71 14.0497 87.71 19.1097C87.71 22.3797 85.89 25.2098 82.52 25.8098L89.97 35.5198ZM76.42 22.4398H77.02C79.03 22.4398 81.3 22.0597 81.3 19.4797C81.3 16.8997 79.04 16.5298 77.02 16.5298H76.42V22.4398Z" fill="white"/>
<path d="M95.49 11.8198H101.55L106.36 24.4797L111.45 11.8198H117.58L121.17 35.5198H115.01L113.28 21.8698H113.21L107.53 35.5198H105.07L99.63 21.8698H99.57L97.5899 35.5198H91.46L95.49 11.8198Z" fill="white"/>
<path d="M130.83 31.3998L129.2 35.5198H122.66L131.78 11.8198H138.51L147.44 35.5198H140.87L139.33 31.3998H130.84H130.83ZM135.14 19.1398H135.08L132.53 26.6898H137.65L135.14 19.1398Z" fill="white"/>
<path d="M166.39 19.7701C165.14 18.0701 163.09 17.1602 160.99 17.1602C157.22 17.1602 154.67 20.0501 154.67 23.7301C154.67 27.4101 157.25 30.1802 161.08 30.1802C163.09 30.1802 165.11 29.2002 166.39 27.6702V35.0602C164.35 35.6902 162.87 36.1602 160.95 36.1602C157.65 36.1602 154.51 34.9002 152.06 32.6702C149.45 30.3102 148.26 27.2301 148.26 23.7101C148.26 20.4701 149.48 17.3602 151.75 15.0302C154.08 12.6402 157.44 11.2002 160.78 11.2002C162.76 11.2002 164.58 11.6401 166.4 12.3901V19.7802L166.39 19.7701Z" fill="white"/>
<path d="M175.38 11.8198H169.22V35.5198H175.38V11.8198Z" fill="white"/>
<path d="M185.05 31.3998L183.42 35.5198H176.88L186 11.8198H192.72L201.65 35.5198H195.08L193.54 31.3998H185.05ZM189.35 19.1398H189.29L186.74 26.6898H191.86L189.35 19.1398Z" fill="white"/>
<path d="M217.22 17.9202C216.09 16.9802 214.64 16.3501 213.13 16.3501C212 16.3501 210.49 17.0101 210.49 18.3301C210.49 19.7201 212.16 20.2501 213.23 20.5901L214.8 21.0602C218.1 22.0302 220.65 23.7002 220.65 27.5302C220.65 29.8902 220.09 32.3102 218.2 33.9102C216.34 35.4802 213.86 36.1401 211.47 36.1401C208.48 36.1401 205.56 35.1302 203.14 33.4402L205.78 28.4701C207.32 29.8201 209.14 30.9202 211.25 30.9202C212.69 30.9202 214.23 30.1902 214.23 28.5302C214.23 26.8702 211.81 26.2101 210.49 25.8301C206.62 24.7301 204.08 23.7201 204.08 19.1301C204.08 14.5401 207.51 11.1802 212.25 11.1802C214.64 11.1802 217.56 11.9301 219.67 13.1301L217.22 17.9102V17.9202Z" fill="white"/>
<path d="M36.07 44.6699C35.48 44.1799 34.73 43.8599 33.95 43.8599C33.37 43.8599 32.58 44.1999 32.58 44.8799C32.58 45.5599 33.44 45.8699 34 46.0499L34.81 46.2999C36.52 46.7999 37.83 47.6699 37.83 49.6499C37.83 50.8699 37.54 52.12 36.56 52.95C35.6 53.76 34.32 54.0999 33.08 54.0999C31.54 54.0999 30.02 53.58 28.77 52.7L30.14 50.1299C30.94 50.8299 31.88 51.3999 32.97 51.3999C33.72 51.3999 34.52 51.0199 34.52 50.1599C34.52 49.2999 33.26 48.9599 32.58 48.7599C30.58 48.1899 29.27 47.6699 29.27 45.2999C29.27 42.9299 31.04 41.1899 33.49 41.1899C34.72 41.1899 36.24 41.58 37.33 42.2L36.06 44.6699H36.07Z" fill="white"/>
<path d="M42.48 51.65L41.63 53.78H38.25L42.96 41.52H46.44L51.06 53.78H47.66L46.86 51.65H42.47H42.48ZM44.71 45.3101H44.68L43.36 49.21H46.01L44.71 45.3101Z" fill="white"/>
<path d="M52.05 41.52H55.23L61.07 49.02H61.1V41.52H64.29V53.78H61.1L55.2701 46.27H55.23V53.78H52.05V41.52Z" fill="white"/>
<path d="M75.13 45.6299C74.48 44.7499 73.42 44.2799 72.33 44.2799C70.38 44.2799 69.07 45.7799 69.07 47.6799C69.07 49.5799 70.4 51.0099 72.38 51.0099C73.42 51.0099 74.46 50.5098 75.13 49.7098V53.5299C74.07 53.8499 73.31 54.0999 72.32 54.0999C70.61 54.0999 68.99 53.4499 67.72 52.2899C66.37 51.0699 65.75 49.4799 65.75 47.6599C65.75 45.9799 66.38 44.3699 67.55 43.1699C68.75 41.9399 70.49 41.1899 72.22 41.1899C73.24 41.1899 74.18 41.4199 75.13 41.8099V45.6299Z" fill="white"/>
<path d="M84.8799 46.25V41.52H88.0699V53.78H84.8799V48.76H80.2799V53.78H77.0999V41.52H80.2799V46.25H84.8799Z" fill="white"/>
<path d="M93.3299 44.22V46.27H96.9299V48.97H93.3299V51.08H97.1199V53.78H90.1499V41.52H97.1199V44.22H93.3299Z" fill="white"/>
<path d="M108.72 51.08V53.78H98.22L104.02 44.22H99.22V41.52H109.36L103.59 51.08H108.72Z" fill="white"/>
<path d="M119.27 51.65L118.42 53.78H115.04L119.76 41.52H123.24L127.86 53.78H124.46L123.66 51.65H119.28H119.27ZM121.5 45.3101H121.47L120.15 49.21H122.8L121.5 45.3101Z" fill="white"/>
<path d="M128.85 41.52H132.03L137.87 49.02H137.9V41.52H141.09V53.78H137.9L132.06 46.27H132.03V53.78H128.85V41.52Z" fill="white"/>
<path d="M148.04 53.78H144.85V44.22H142.22V41.52H150.67V44.22H148.04V53.78Z" fill="white"/>
<path d="M164.77 47.4199C164.77 51.3799 161.93 54.1799 157.99 54.1799C154.05 54.1799 151.21 51.3799 151.21 47.4199C151.21 43.7099 154.46 41.1099 157.99 41.1099C161.52 41.1099 164.77 43.7099 164.77 47.4199ZM154.52 47.4399C154.52 49.5599 156.08 51.0999 157.98 51.0999C159.88 51.0999 161.45 49.5599 161.45 47.4399C161.45 45.7499 159.89 44.2098 157.98 44.2098C156.07 44.2098 154.52 45.7599 154.52 47.4399Z" fill="white"/>
<path d="M166.24 41.52H169.43L175.26 49.02H175.3V41.52H178.48V53.78H175.3L169.46 46.27H169.43V53.78H166.24V41.52Z" fill="white"/>
<path d="M183.74 41.52H180.56V53.78H183.74V41.52Z" fill="white"/>
<path d="M198.77 47.4199C198.77 51.3799 195.92 54.1799 191.99 54.1799C188.06 54.1799 185.21 51.3799 185.21 47.4199C185.21 43.7099 188.46 41.1099 191.99 41.1099C195.52 41.1099 198.77 43.7099 198.77 47.4199ZM188.53 47.4399C188.53 49.5599 190.09 51.0999 191.99 51.0999C193.89 51.0999 195.46 49.5599 195.46 47.4399C195.46 45.7499 193.9 44.2098 191.99 44.2098C190.08 44.2098 188.53 45.7599 188.53 47.4399Z" fill="white"/>
<path d="M203.43 51.08H207.25V53.78H200.24V41.52H203.43V51.08Z" fill="white"/>
<path d="M211.48 51.08H215.3V53.78H208.29V41.52H211.48V51.08Z" fill="white"/>
<path d="M219.52 41.52H216.33V53.78H219.52V41.52Z" fill="white"/>
<path d="M248.75 0H0V2.32007H248.75V0Z" fill="#F1BB09"/>
</svg>
