<svg width="2062" height="449" viewBox="0 0 2062 449" fill="none" xmlns="http://www.w3.org/2000/svg">
<g clip-path="url(#clip0_409_97)">
<path d="M296.087 141.11V174.005H352.199V217.199H296.087V294.363H245.048V97.9161H357.887V141.11H296.087Z" fill="#047D99"/>
<path d="M426.912 260.239L413.384 294.363H359.117L434.753 97.9161H490.557L564.502 294.363H510.081L497.321 260.239H426.912ZM462.578 158.633H461.963L440.902 221.195H483.485L462.578 158.633Z" fill="#047D99"/>
<path d="M745.751 294.363H682.26L633.989 218.889H633.527V294.363H582.489V97.9161H658.739C697.633 97.9161 726.996 116.362 726.996 158.326C726.996 185.533 711.93 208.898 683.951 213.817L745.751 294.363ZM633.374 185.995H638.293C655.05 185.995 673.805 182.92 673.805 161.554C673.805 140.188 655.05 137.113 638.293 137.113H633.374V186.148V185.995Z" fill="#047D99"/>
<path d="M791.563 97.9161H841.68L881.65 202.903L923.926 97.9161H974.657L1004.33 294.363H953.289L938.992 181.229H938.377L891.335 294.363H870.889L825.845 181.229H825.384L808.935 294.363H758.203L791.563 97.9161Z" fill="#047D99"/>
<path d="M1084.42 260.239L1070.89 294.363H1016.63L1092.26 97.9161H1148.07L1222.01 294.363H1167.59L1154.83 260.239H1084.42ZM1120.24 158.633H1119.78L1098.72 221.195H1141.15L1120.39 158.633H1120.24Z" fill="#047D99"/>
<path d="M1379.28 163.86C1368.82 149.718 1351.91 142.186 1334.54 142.186C1303.18 142.186 1282.12 166.165 1282.12 196.601C1282.12 227.036 1303.49 250.093 1335.31 250.093C1351.91 250.093 1368.67 241.947 1379.28 229.188V290.367C1362.37 295.593 1350.07 299.436 1334.24 299.436C1306.87 299.436 1280.89 288.983 1260.6 270.538C1238.92 251.016 1229.08 225.499 1229.08 196.293C1229.08 169.393 1239.23 143.723 1257.98 124.355C1277.2 104.526 1305.18 92.5361 1332.85 92.5361C1349.3 92.5361 1364.37 96.2253 1379.43 102.374V163.552L1379.28 163.86Z" fill="#047D99"/>
<path d="M1453.68 97.9161H1402.65V294.363H1453.68V97.9161Z" fill="#047D99"/>
<path d="M1533.93 260.239L1520.4 294.363H1466.14L1541.77 97.9161H1597.58L1671.52 294.363H1617.1L1604.34 260.239H1533.93ZM1569.6 158.633H1569.14L1548.08 221.195H1590.51L1569.75 158.633H1569.6Z" fill="#047D99"/>
<path d="M1800.5 148.488C1791.13 140.649 1779.13 135.422 1766.68 135.422C1757.3 135.422 1744.85 140.956 1744.85 151.87C1744.85 163.399 1758.69 167.856 1767.6 170.623L1780.67 174.62C1808.04 182.767 1829.1 196.447 1829.1 228.266C1829.1 247.788 1824.48 267.924 1808.8 281.144C1793.43 294.21 1772.83 299.59 1753 299.59C1728.25 299.59 1703.96 291.289 1683.97 277.147L1705.8 235.952C1718.56 247.173 1733.63 256.242 1751.16 256.242C1763.15 256.242 1775.91 250.247 1775.91 236.413C1775.91 222.579 1755.92 217.199 1744.85 213.971C1712.88 204.901 1691.66 196.447 1691.66 158.48C1691.66 120.512 1720.1 92.5361 1759.46 92.5361C1779.29 92.5361 1803.42 98.6847 1820.95 108.676L1800.66 148.334L1800.5 148.488Z" fill="#047D99"/>
<path d="M299.008 370.298C294.088 366.302 287.939 363.535 281.482 363.535C276.717 363.535 270.106 366.302 270.106 371.989C270.106 377.677 277.332 380.29 281.79 381.673L288.554 383.671C302.697 387.822 313.612 395.046 313.612 411.34C313.612 421.485 311.152 431.784 303.005 438.701C295.011 445.465 284.403 448.231 274.103 448.231C261.343 448.231 248.738 443.927 238.438 436.703L249.814 415.337C256.424 421.178 264.264 425.943 273.181 425.943C279.33 425.943 285.941 422.869 285.941 415.644C285.941 408.419 275.487 405.653 269.952 404.115C253.349 399.35 242.435 395.046 242.435 375.371C242.435 355.695 257.039 341.246 277.485 341.246C287.785 341.246 300.238 344.474 309.308 349.547L298.854 369.991L299.008 370.298Z" fill="#047D99"/>
<path d="M352.045 428.095L344.973 445.772H316.994L356.042 344.167H384.944L423.223 445.772H395.09L388.479 428.095H352.045ZM370.493 375.525H370.185L359.27 407.805H381.254L370.493 375.525Z" fill="#047D99"/>
<path d="M431.524 344.167H457.812L506.238 406.267H506.545V344.167H532.833V445.772H506.545L458.12 383.518H457.812V445.772H431.524V344.167Z" fill="#047D99"/>
<path d="M622.766 378.138C617.386 370.913 608.623 366.917 599.553 366.917C583.411 366.917 572.496 379.367 572.496 395.046C572.496 410.725 583.565 422.715 600.014 422.715C608.623 422.715 617.232 418.565 622.766 411.955V443.62C614.003 446.233 607.7 448.385 599.399 448.385C585.256 448.385 571.727 443.005 561.274 433.475C550.051 423.33 544.978 410.11 544.978 395.046C544.978 381.212 550.205 367.839 559.89 357.847C569.882 347.702 584.333 341.4 598.63 341.4C607.086 341.4 614.926 343.245 622.766 346.473V378.138Z" fill="#047D99"/>
<path d="M703.629 383.364V344.167H730.071V445.772H703.629V404.115H665.503V445.772H639.062V344.167H665.503V383.364H703.629Z" fill="#047D99"/>
<path d="M773.577 366.455V383.518H803.401V405.806H773.577V423.33H805.092V445.772H747.289V344.167H805.092V366.455H773.577Z" fill="#047D99"/>
<path d="M901.174 423.33V445.772H814.162L862.28 366.455H822.463V344.167H906.554L858.59 423.33H901.174Z" fill="#047D99"/>
<path d="M988.647 428.095L981.575 445.772H953.596L992.644 344.167H1021.55L1059.82 445.772H1031.69L1025.08 428.095H988.801H988.647ZM1007.09 375.525H1006.79L995.872 407.805H1017.86L1007.09 375.525Z" fill="#047D99"/>
<path d="M1067.97 344.167H1094.41L1142.84 406.267H1142.99V344.167H1169.44V445.772H1142.99L1094.72 383.518H1094.41V445.772H1067.97V344.167Z" fill="#047D99"/>
<path d="M1227.08 445.772H1200.64V366.455H1178.81V344.167H1248.91V366.455H1227.08V445.772Z" fill="#047D99"/>
<path d="M1365.75 393.048C1365.75 425.943 1342.23 449.154 1309.48 449.154C1276.74 449.154 1253.37 425.943 1253.37 393.048C1253.37 362.305 1280.28 340.785 1309.48 340.785C1338.69 340.785 1365.75 362.305 1365.75 393.048ZM1280.89 393.202C1280.89 410.725 1293.8 423.483 1309.64 423.483C1325.47 423.483 1338.39 410.725 1338.39 393.202C1338.39 379.214 1325.47 366.455 1309.64 366.455C1293.8 366.455 1280.89 379.214 1280.89 393.202Z" fill="#047D99"/>
<path d="M1377.89 344.167H1404.34L1452.76 406.267H1453.07V344.167H1479.51V445.772H1453.07L1404.64 383.518H1404.34V445.772H1377.89V344.167Z" fill="#047D99"/>
<path d="M1523.17 344.167H1496.73V445.772H1523.17V344.167Z" fill="#047D99"/>
<path d="M1647.54 393.048C1647.54 425.943 1624.02 449.154 1591.27 449.154C1558.53 449.154 1535.16 425.943 1535.16 393.048C1535.16 362.305 1562.07 340.785 1591.27 340.785C1620.48 340.785 1647.54 362.305 1647.54 393.048ZM1562.68 393.202C1562.68 410.725 1575.59 423.483 1591.43 423.483C1607.26 423.483 1620.18 410.725 1620.18 393.202C1620.18 379.214 1607.26 366.455 1591.43 366.455C1575.59 366.455 1562.68 379.214 1562.68 393.202Z" fill="#047D99"/>
<path d="M1686.28 423.33H1717.95V445.772H1659.84V344.167H1686.28V423.33Z" fill="#047D99"/>
<path d="M1753 423.33H1784.67V445.772H1726.56V344.167H1753V423.33Z" fill="#047D99"/>
<path d="M1819.72 344.167H1793.28V445.772H1819.72V344.167Z" fill="#047D99"/>
<path d="M2062 0H0V19.2143H2062V0Z" fill="#F4BD07"/>
</g>
<defs>
<clipPath id="clip0_409_97">
<rect width="2062" height="449" fill="white"/>
</clipPath>
</defs>
</svg>
