<svg width="151" height="171" viewBox="0 0 151 171" fill="none" xmlns="http://www.w3.org/2000/svg">
<path d="M115.653 122.067C114.23 129.786 110.194 148.65 103.544 149.654C91.4355 151.425 48.8976 124.686 39.5263 115.588C14.3267 91.1319 5.40825 51.229 36.1287 27.345C81.9696 -8.27322 133.029 46.9855 120.412 95.933L115.64 122.04M83.9565 22.3949C58.2503 12.7202 30.0284 27.8692 21.9261 53.6168C7.06848 100.85 63.5035 135.112 101.582 146.486C106.855 145.238 114.506 112.052 115.666 105.748C121.379 74.3325 118.941 35.5616 83.969 22.4225L83.9565 22.3949Z" fill="#045C6C" fill-opacity="0.67"/>
<path d="M58.8637 44.0408L72.4454 56.856C82.1947 58.5076 101.298 39.6286 84.6706 69.9172L94.673 85.7416C89.2672 89.5077 79.9828 82.8953 75.4383 85.2432C69.6868 88.1684 70.7428 99.3876 63.4264 101.357L57.6187 82.1133C54.9635 79.2569 42.0079 82.1075 40.7828 74.9516L55.8858 64.2885L55.3159 45.6403L58.8637 44.0408ZM71.4673 60.7524L59.2905 49.7957C56.8514 50.8954 60.0777 64.8573 59.4658 66.1631C58.1628 69.0431 45.9964 72.5347 45.9868 76.3599L60.4536 79.6723L64.9081 94.5092L74.7516 80.8348L90.3524 83.0379C87.7774 78.5838 82.3435 75.186 81.6034 69.7717C80.9584 65.0123 87.5934 60.7916 85.8719 56.0856L71.4548 60.7248L71.4673 60.7524Z" fill="#045C6C" fill-opacity="0.67"/>
</svg>
